:SAMPLES-PER-SECOND 30
:FULLY-SPECIFIED
:DEGREES
279
root  -71.8801 41.6073 -5.22795 -6.59167 -70.5 9.45996
RightUpLeg  -5.81505 -11.5943 -8.46266
RightLeg  5.64035 -18.6543 4.02044
RightFoot  -0.847175 -0.0616594 0.609034
RightToes  -1.33073e-015 0 -3.6325e-017
Spine  11.14 2.3588 7.13771
Spine1  1.54179 3.66729 -3.50196
HEad  -4.66436 30.8493 -17.7084
LeftShoulder1  5.33574 -8.80673 -37.2111
LeftArm  -19.3785 8.94791 -28.3612
LeftForeArm  41.913 -20.0086 -2.49097
LeftHand  -0.244104 0.0205437 5.32207
RightShoulder  3.56937 6.61848 29.2879
RightArm  -16.0973 -9.32936 32.877
RightForeArm  13.8432 8.97074 4.45165
RightHand  -0.987612 2.61337 -14.475
LeftUpLeg  -10.2166 3.67316 0.39826
LeftLeg  4.37305 14.1132 -2.78891
LeftFoot  -1.89796 0.0388816 -0.331627
LeftToes  -7.82198e-011 2.46994e-011 -7.94165e-012
280
root  -71.8505 41.6613 -5.43107 -4.63263 -65.5955 7.99988
RightUpLeg  -5.18364 -11.7252 -8.65613
RightLeg  4.83759 -23.1172 4.17784
RightFoot  -0.734142 -0.0369953 0.343451
RightToes  -1.33073e-015 0 -3.6325e-017
Spine  10.9911 2.7332 7.98233
Spine1  2.07834 4.3376 -4.37915
HEad  -5.33974 30.6947 -17.7213
LeftShoulder1  5.96784 -9.42345 -39.9097
LeftArm  -17.0584 10.3473 -31.4105
LeftForeArm  40.4854 -17.4955 -2.69635
LeftHand  -0.244104 0.0205437 5.32207
RightShoulder  4.16428 7.51779 31.8449
RightArm  -13.7128 -7.51027 36.6745
RightForeArm  17.0032 10.6145 4.91111
RightHand  -0.646637 0.819088 -12.2378
LeftUpLeg  -10.1643 5.58418 0.561154
LeftLeg  3.54473 26.8294 -4.28666
LeftFoot  -2.92952 -0.060479 1.05725
LeftToes  -7.82198e-011 2.46994e-011 -7.94165e-012
281
root  -71.879 41.6966 -5.59037 -3.2912 -60.153 6.75916
RightUpLeg  -3.90783 -11.9718 -8.93793
RightLeg  4.11994 -27.888 4.5409
RightFoot  -0.874604 -0.0709484 0.711538
RightToes  -1.33073e-015 0 -3.6325e-017
Spine  10.8482 3.15308 8.67158
Spine1  2.6952 5.06026 -5.18912
HEad  -5.73594 29.9429 -17.375
LeftShoulder1  6.4928 -9.90576 -42.0207
LeftArm  -15.3833 12.3903 -33.6952
LeftForeArm  39.3001 -14.1532 -3.25699
LeftHand  -0.244104 0.0205437 5.32207
RightShoulder  4.58859 8.11537 33.5535
RightArm  -8.33242 -5.49597 40.2331
RightForeArm  15.9652 14.2141 5.2415
RightHand  -0.571299 0.383732 -11.5677
LeftUpLeg  -9.32026 7.86557 0.653935
LeftLeg  2.83608 38.4442 -6.2341
LeftFoot  -4.10066 -0.143771 2.68811
LeftToes  -7.82198e-011 2.46994e-011 -7.94165e-012
282
root  -71.9633 41.6879 -5.69047 -2.09509 -54.2681 5.52643
RightUpLeg  -2.786 -12.2818 -9.05318
RightLeg  4.4371 -33.3855 4.4533
RightFoot  -1.46709 -0.113255 1.19169
RightToes  -1.33073e-015 0 -3.6325e-017
Spine  10.7782 3.74504 9.12953
Spine1  2.68371 5.80179 -5.52102
HEad  -5.30943 29.3107 -16.6814
LeftShoulder1  7.01288 -10.4346 -43.7766
LeftArm  -13.9826 15.4677 -34.6089
LeftForeArm  39.2922 -10.9799 -3.93397
LeftHand  -0.244104 0.0205437 5.32207
RightShoulder  4.78665 8.33415 34.4833
RightArm  0.637454 -3.9096 42.7505
RightForeArm  10.4214 20.2265 4.93684
RightHand  -0.647628 0.646006 -12.5313
LeftUpLeg  -8.25423 11.5016 0.477173
LeftLeg  2.99856 47.5148 -7.60103
LeftFoot  -5.60342 -0.211566 4.90502
LeftToes  -7.82198e-011 2.46994e-011 -7.94165e-012
283
root  -72.0755 41.6283 -5.68997 -0.408752 -47.8079 3.94403
RightUpLeg  -2.21144 -12.6574 -8.8068
RightLeg  5.85217 -39.1447 3.82095
RightFoot  -2.26513 -0.144114 1.61883
RightToes  -1.33073e-015 0 -3.6325e-017
Spine  10.1232 4.26308 9.92956
Spine1  2.34227 6.37398 -5.76224
HEad  -4.54752 29.6681 -15.5212
LeftShoulder1  7.37274 -10.8521 -44.7344
LeftArm  -12.4671 19.4088 -34.3593
LeftForeArm  40.5373 -8.90377 -4.40585
LeftHand  -0.244104 0.0205437 5.32207
RightShoulder  4.86428 8.39387 34.9246
RightArm  6.25788 -2.96585 43.4258
RightForeArm  8.09788 28.0048 5.51249
RightHand  -0.725944 0.712825 -13.8948
LeftUpLeg  -7.43944 15.5788 0.22267
LeftLeg  3.89459 53.1214 -7.68079
LeftFoot  -6.63077 -0.227537 6.45077
LeftToes  -7.82198e-011 2.46994e-011 -7.94165e-012
